PathFileType	4	(X/Y/Z)	C:\Git\research_data\Projects\squatting_fais\c3dfiles\036\SJ_pre1\markers_experimental.trc
DataRate	CameraRate	NumFrames	NumMarkers	Units	OrigDataRate	OrigDataStartFrame	OrigNumFrames
200.000000	200.000000	4	62	mm	200.000000	825	2200
Frame#	Time	FHD			LBHD			RBHD			C7			T10			CLAV			LSHO			LUUPA			LMUPA			LDUPA			LLEP			LMEP			LRAD			LUL			LRFIN			RSHO			RUPA1			RMUPA			RDUPA			RLEP			RMEP			RRAD			RUL			RUFIN			LASI			RASI			USACR			LSACR			RSACR			LTHI1			LTHI2			LTHI3			LTHI4			LLFC			LMFC			LTIB1			LTIB2			LTIB3			LTIB4			LLMAL			LMMAL			LHEE			LMT1			LMT2			LMT5			RTHI			RTHI2			RTHI3			RTHI4			RLFC			RMFC			RTIB1			RTIB2			RTIB3			RTIB4			RLMAL			RMMAL			RHEE			RMT1			RMT2			RMT5			*61			
		X1	Y1	Z1	X2	Y2	Z2	X3	Y3	Z3	X4	Y4	Z4	X5	Y5	Z5	X6	Y6	Z6	X7	Y7	Z7	X8	Y8	Z8	X9	Y9	Z9	X10	Y10	Z10	X11	Y11	Z11	X12	Y12	Z12	X13	Y13	Z13	X14	Y14	Z14	X15	Y15	Z15	X16	Y16	Z16	X17	Y17	Z17	X18	Y18	Z18	X19	Y19	Z19	X20	Y20	Z20	X21	Y21	Z21	X22	Y22	Z22	X23	Y23	Z23	X24	Y24	Z24	X25	Y25	Z25	X26	Y26	Z26	X27	Y27	Z27	X28	Y28	Z28	X29	Y29	Z29	X30	Y30	Z30	X31	Y31	Z31	X32	Y32	Z32	X33	Y33	Z33	X34	Y34	Z34	X35	Y35	Z35	X36	Y36	Z36	X37	Y37	Z37	X38	Y38	Z38	X39	Y39	Z39	X40	Y40	Z40	X41	Y41	Z41	X42	Y42	Z42	X43	Y43	Z43	X44	Y44	Z44	X45	Y45	Z45	X46	Y46	Z46	X47	Y47	Z47	X48	Y48	Z48	X49	Y49	Z49	X50	Y50	Z50	X51	Y51	Z51	X52	Y52	Z52	X53	Y53	Z53	X54	Y54	Z54	X55	Y55	Z55	X56	Y56	Z56	X57	Y57	Z57	X58	Y58	Z58	X59	Y59	Z59	X60	Y60	Z60	X61	Y61	Z61	X62	Y62	Z62	

826	4.125	86.00109863281251	1194.128540039063	-901.519470214844	-79.09164428710939	1137.841674804688	-965.3585205078127	-32.78195190429688	1163.117919921875	-822.3821411132815	nan	nan	nan	-318.1162109375001	870.069274902344	-906.7701416015627	-19.88433456420899	953.484069824219	-893.2935791015627	-23.0675106048584	1010.372680664063	-1035.240478515625	-115.1851501464844	965.1731567382815	-1180.283325195313	-118.5332260131836	915.3551025390627	-1185.231323242188	-158.2863311767578	934.5759887695315	-1227.538818359375	-199.5172729492188	897.214538574219	-1251.594970703125	-250.0853729248047	939.3384399414065	-1231.572387695313	-301.6028137207032	690.6651000976564	-1182.404418945313	-319.8224182128907	739.3977661132814	-1135.581787109375	-298.7517089843751	700.1921386718751	-1092.723999023438	-43.25325775146485	1018.743530273438	-752.8611450195314	-144.0496978759766	987.1854248046877	-628.8489379882814	-137.4420776367188	938.529724121094	-618.8223876953126	-181.6468505859375	952.0771484375002	-580.5314331054689	-228.7776641845704	901.397155761719	-548.3336791992189	-290.6510925292969	922.7686767578127	-587.0101928710939	-312.5955505371094	728.3095092773439	-672.9607543945314	-291.5927429199219	683.4029541015626	-629.5885009765626	-298.3717651367188	691.6846313476564	-719.0044555664064	nan	nan	nan	nan	nan	nan	-390.3658142089845	817.197692871094	-910.374206542969	-423.4104919433595	809.0789794921877	-936.1741943359377	-418.7781982421876	810.2451171875002	-881.8313598632815	-363.8432617187501	616.7753906250001	-1135.568481445313	-291.8798522949219	577.6472167968751	-1134.935546875	-261.2509765625001	606.9317626953126	-1113.26513671875	-278.0356445312501	522.9237670898439	-1140.544555664063	-194.756576538086	407.1495971679689	-1146.729125976563	-162.3406372070313	370.5356140136719	-997.277770996094	-175.9591217041016	236.6238708496094	-1073.781005859375	-220.8321533203126	214.7324523925782	-1146.083618164063	-200.8931732177735	199.0685119628907	-1108.462280273438	-244.206039428711	131.2511138916016	-1078.998168945313	-332.0477905273438	85.62175750732423	-1135.826904296875	-310.9949035644532	83.8736038208008	-1051.953491210938	-390.6317749023439	62.50833892822267	-1098.331909179688	-201.3505554199219	50.94495773315431	-1075.485717773438	-190.3114013671875	53.23522949218751	-1123.032958984375	-232.4198760986329	35.13567352294923	-1171.7607421875	-388.278533935547	537.9415893554689	-676.8305053710939	-324.1551818847657	526.9821166992189	-660.9362182617189	-302.1161499023438	551.4230957031251	-660.8734741210939	-282.6958923339844	455.026336669922	-661.3311157226564	-189.1047821044922	393.3871154785157	-650.6182861328126	-142.8624877929688	400.0932617187501	-792.0410766601565	-176.9618377685547	244.5169525146485	-698.4616088867189	-275.4954223632813	203.7294464111329	-658.1625366210939	-238.4553222656251	185.8758239746094	-680.1278686523439	-249.6647644042969	140.1339721679688	-715.9730224609376	-364.6325988769532	86.69862365722658	-704.8992919921876	-321.4617614746094	82.15378570556642	-777.4155883789065	-409.0076599121095	61.25342178344728	-747.9086303710939	-211.8326110839844	47.68159866333009	-728.5520019531251	-220.7100067138672	55.74180603027345	-679.6064453125001	-266.9586181640626	36.49693679809571	-639.8779296875001	nan	nan	nan	
827	4.13	86.47104644775392	1193.471557617188	-901.4995727539065	-78.51612854003908	1137.27783203125	-965.388610839844	-32.27545166015626	1162.524780273438	-822.3853759765627	nan	nan	nan	-317.9757995605469	869.7508544921877	-906.887634277344	-19.68132972717286	953.0386352539065	-893.226013183594	-22.32765769958496	1009.78173828125	-1035.349365234375	-114.8312225341797	964.7966918945315	-1180.314453125	-118.2145004272461	915.0358886718752	-1185.168579101563	-158.0161743164063	934.317321777344	-1227.535766601563	-199.2832794189454	896.9746704101565	-1251.629272460938	-249.7435913085938	939.1475830078127	-1231.688110351563	-301.3008117675782	690.5145263671876	-1182.589111328125	-319.6861267089844	739.1967163085939	-1135.658935546875	-298.5730285644532	700.0073242187501	-1092.824584960938	-42.89429473876954	1018.328857421875	-752.8916015625001	-143.8559875488282	986.7570800781252	-628.8519287109376	-137.4640350341797	938.1625976562502	-618.7493286132814	-181.3881072998047	951.7112426757815	-580.5399169921876	-228.6412200927735	901.0813598632815	-548.4094848632814	-290.5682067871094	922.5581054687502	-587.1083984375001	-312.6661376953126	728.1037597656251	-673.0818481445314	-291.6666564941407	683.0805053710939	-629.7382812500001	-298.3854370117188	691.3493652343751	-719.0919799804689	nan	nan	nan	nan	nan	nan	-390.1793212890626	816.8891601562502	-910.5100708007815	-422.4856262207032	808.2564697265627	-936.6069335937502	-415.998016357422	809.4351806640627	-881.3291015625002	-363.5310363769532	616.5950317382814	-1135.847778320313	-291.7303466796876	577.4782104492189	-1135.12353515625	-261.2477416992188	606.7695312500001	-1113.419067382813	-277.8210449218751	522.7896728515626	-1140.68896484375	-194.6652526855469	407.0838928222657	-1146.907836914063	-161.9902038574219	370.6069335937501	-997.4634399414065	-175.5414733886719	236.5335998535157	-1073.945068359375	-220.6190643310547	214.5676269531251	-1146.2041015625	-200.6367950439454	198.9621276855469	-1108.519287109375	-244.0274047851563	131.2857055664063	-1079.055419921875	-331.8787841796876	85.55300903320314	-1135.798217773438	-310.9426269531251	83.99462127685548	-1051.954467773438	-390.6495056152345	62.5870933532715	-1098.223754882813	-201.3219146728516	50.96393966674806	-1075.483032226563	-190.227767944336	53.18293762207033	-1123.01953125	-232.3804626464844	35.20940399169923	-1171.761962890625	-388.3713989257814	537.6812133789064	-676.8599243164064	-324.1810607910157	526.7830200195314	-660.9504394531251	-302.1606750488282	551.3056030273439	-660.8712158203126	-282.6494750976563	454.8324584960939	-661.3389282226564	-189.0022125244141	393.3541870117189	-650.5977783203126	-142.8452758789063	400.0691223144532	-791.954284667969	-176.8995666503907	244.483871459961	-698.3999023437501	-275.4158020019532	203.7532196044922	-658.1558837890626	-238.3893737792969	185.8880767822266	-680.0360717773439	-249.5938262939454	140.1656341552735	-715.9649658203126	-364.5577087402344	86.73599243164064	-704.9996337890626	-321.3914184570313	82.21311187744142	-777.468688964844	-408.9280090332032	61.27836990356447	-747.9975585937501	-211.7696533203126	47.68227005004884	-728.5391845703126	-220.9306945800782	55.87496185302736	-679.6244506835939	-266.9648132324219	36.4483985900879	-639.8950805664064	nan	nan	nan	
828	4.135	86.92005157470705	1192.63427734375	-901.4976806640627	-78.45263671875001	1136.868408203125	-965.3380126953127	-32.1583480834961	1161.944091796875	-822.3026123046877	nan	nan	nan	-317.8091430664063	869.4431762695315	-907.001647949219	-19.44604110717774	952.533630371094	-893.1422119140627	-22.43936157226563	1009.318908691406	-1035.173461914063	-114.5892562866211	964.435485839844	-1180.244140625	-117.6006317138672	914.7578125000002	-1185.457275390625	-157.7783203125	934.1077880859377	-1227.612915039063	-199.1804809570313	896.9296875000002	-1251.79931640625	-249.3599243164063	939.0408325195315	-1231.794677734375	-301.1336669921876	690.2551269531251	-1182.69384765625	-319.4808959960938	739.0474853515626	-1135.720703125	-298.5538635253907	699.8203735351564	-1092.836791992188	-42.43246459960938	1017.7431640625	-753.1221923828126	-143.5979309082032	986.4029541015627	-628.9934082031251	-137.324447631836	937.8988037109377	-618.7762451171876	-181.3174896240235	951.3840942382815	-580.5430297851564	-228.453598022461	900.5593872070315	-548.5136718750001	-290.4792175292969	922.3562011718752	-587.1731567382814	-311.3487243652344	727.7119140625001	-673.5394897460939	-291.6942443847657	682.8439331054689	-629.8305053710939	-298.3605651855469	691.1796264648439	-719.1121826171876	nan	nan	nan	nan	nan	nan	-390.0740966796876	816.6646118164065	-910.6035156250002	-422.0134277343751	808.2720947265627	-936.7091064453127	-414.3015747070314	808.9581298828127	-881.0258789062502	-363.5245666503907	616.4603271484376	-1136.025512695313	-291.6167602539063	577.2934570312501	-1135.240600585938	-261.1076354980469	606.5915527343751	-1113.57763671875	-277.7962341308594	522.5877685546876	-1140.836791992188	-193.8426818847657	406.9902648925782	-1146.988891601563	-161.8419036865235	370.5246582031251	-997.7418212890627	-175.489990234375	236.4225311279297	-1074.073852539063	-220.6964874267579	214.4502868652344	-1146.325439453125	-200.5941619873047	198.8044128417969	-1108.615966796875	-243.9854583740235	131.3947296142578	-1079.130981445313	-331.9354858398438	85.56811523437501	-1135.776245117188	-310.7800292968751	83.96763610839845	-1051.966064453125	-390.6391601562501	62.62593841552736	-1098.207641601563	-201.3618164062501	50.95664215087892	-1075.4736328125	-190.274169921875	53.17211532592775	-1123.025390625	-232.1087036132813	35.03074264526368	-1171.775634765625	-388.3926086425782	537.5541381835939	-676.8543701171876	-324.2055969238282	526.7059936523439	-661.0192260742189	-302.1723937988282	551.1289672851564	-660.9144897460939	-282.5890808105469	454.7503662109376	-661.3758544921876	-188.9242858886719	393.2857055664064	-650.5200805664064	-142.9681396484375	399.927947998047	-791.866882324219	-176.8221130371094	244.4411010742188	-698.3178100585939	-275.4194335937501	203.7392883300782	-658.1840209960939	-238.340560913086	185.8900909423828	-680.0050048828126	-249.5689697265626	140.1374664306641	-716.0114135742189	-364.5196838378907	86.73353576660158	-705.0911254882814	-321.3218383789063	82.23280334472658	-777.5088500976565	-408.8532714843751	61.28661346435548	-748.1204833984376	-211.7370758056641	47.66197967529298	-728.5598754882814	-220.9262237548829	55.8656349182129	-679.6372070312501	-266.9810180664063	36.52543258666993	-639.8713989257814	nan	nan	nan	
829	4.14	87.21262359619142	1192.124267578125	-901.4929809570315	-77.94361877441408	1136.348510742188	-965.2915039062502	-31.89857864379884	1161.415893554688	-822.206970214844	nan	nan	nan	-317.6237792968751	869.060974121094	-907.0789794921877	-19.31385231018067	951.7617187500002	-893.164733886719	-22.5512752532959	1009.009521484375	-1034.955078125	-114.4464797973633	964.0977783203127	-1180.14404296875	-117.6468505859375	914.3035278320315	-1185.327514648438	-157.4938507080078	933.5388793945315	-1227.609497070313	-198.8554229736329	896.7501220703127	-1251.87451171875	-249.0619506835938	938.8344726562502	-1231.862548828125	-301.0239562988282	690.1242675781251	-1182.807250976563	-319.3619384765626	738.8305053710939	-1135.864624023438	-297.7633666992188	699.6530761718751	-1093.018188476563	-42.3073959350586	1017.364807128906	-753.0898437500001	-143.2171173095703	986.0520629882815	-629.0591430664064	-137.1121215820313	937.551940917969	-618.7604980468751	-181.1654357910157	951.1482543945315	-580.5518798828126	-228.3593444824219	900.3318481445315	-548.5352783203126	-290.3396911621094	922.0891723632815	-587.2359008789064	-312.3002624511719	727.9367065429689	-673.9500122070314	-291.6214904785157	682.6852416992189	-629.8713989257814	-298.3609008789063	690.9107055664064	-719.1561279296876	nan	nan	nan	nan	nan	nan	-389.9718017578126	816.572937011719	-910.7476196289065	-421.9400939941407	807.9187011718752	-936.8349609375002	-414.3524475097657	808.8255615234377	-881.1089477539065	-363.4838256835938	616.3397216796876	-1136.1953125	-291.4896240234376	577.2107543945314	-1135.426879882813	-260.9989929199219	606.4219970703126	-1113.75244140625	-277.6691284179688	522.4618530273439	-1141.010864257813	-194.3075103759766	406.8488769531251	-1147.348876953125	-161.6867065429688	370.4605712890626	-997.9131469726565	-175.5065612792969	236.3939971923829	-1074.194946289063	-220.7054138183594	214.308334350586	-1146.372192382813	-200.5497283935547	198.8475646972657	-1108.738037109375	-243.8642578125001	131.3477325439453	-1079.14501953125	-331.9270019531251	85.62277984619142	-1135.735961914063	-310.7103881835938	83.99765014648439	-1051.966552734375	-390.5977783203126	62.62660217285158	-1098.158203125	-201.2853240966797	50.87573242187501	-1075.571533203125	-190.2505493164063	53.17593383789064	-1123.014038085938	-232.3361511230469	35.18429183959962	-1171.766357421875	-388.4113769531251	537.4451904296876	-676.9001464843751	-324.1850891113282	526.5431518554689	-661.0683593750001	-302.1543273925782	550.9560546875001	-660.9211425781251	-282.6000671386719	454.6558532714845	-661.3748168945314	-188.8336639404297	393.2545471191407	-650.4634399414064	-142.7485504150391	399.9196166992189	-791.791198730469	-176.7778778076172	244.4360656738282	-698.2636108398439	-275.3183288574219	203.7664947509766	-658.1621704101564	-238.2943725585938	185.7958984375	-680.0138549804689	-249.5505371093751	140.1271057128907	-716.0646972656251	-364.5531921386719	86.79180145263673	-705.1064453125001	-321.0290527343751	82.30067443847658	-777.7493896484377	-408.7698059082032	61.32457733154298	-748.2399291992189	-211.7497558593751	47.64938354492188	-728.5699462890626	-220.7982177734376	55.82712554931642	-679.6548461914064	-266.9404296875001	36.4858512878418	-639.8979492187501	nan	nan	nan	
